<?xml version="1.0" standalone="no"?>
<!DOCTYPE svg PUBLIC "-//W3C//DTD SVG 20010904//EN"
 "http://www.w3.org/TR/2001/REC-SVG-20010904/DTD/svg10.dtd">
<svg version="1.0" xmlns="http://www.w3.org/2000/svg"
 width="260.000000pt" height="260.000000pt" viewBox="0 0 260.000000 260.000000"
 preserveAspectRatio="xMidYMid meet">
<metadata>
Created by potrace 1.11, written by Peter Selinger 2001-2013
</metadata>
<g transform="translate(0.000000,260.000000) scale(0.100000,-0.100000)"
fill="#000000" stroke="none">
<path d="M1298 2455 c-2 -2 -32 -6 -68 -9 -120 -9 -240 -57 -306 -121 -34 -33
-68 -91 -60 -103 3 -5 7 -26 10 -48 8 -65 18 -119 22 -126 3 -4 -20 -20 -50
-35 l-54 -26 -28 32 c-26 31 -31 33 -75 29 -34 -4 -59 -14 -89 -38 -22 -18
-43 -30 -45 -28 -7 7 73 80 128 117 26 17 47 33 47 34 12 60 10 77 -9 96 -26
26 -81 27 -137 2 -44 -20 -157 -127 -149 -141 3 -5 1 -10 -3 -12 -15 -5 -63
-136 -64 -173 l-1 -35 -20 21 c-12 13 -20 37 -21 69 -3 54 -18 80 -46 75 -104
-20 -103 -195 2 -296 13 -12 42 -30 64 -40 51 -23 61 -35 69 -79 4 -19 8 -42
10 -50 1 -8 0 -19 -3 -25 -3 -5 -7 -16 -8 -25 -2 -8 -12 -46 -24 -85 -41 -139
-58 -352 -35 -445 6 -23 14 -62 19 -85 12 -61 87 -222 143 -308 56 -86 186
-218 265 -270 112 -74 262 -133 388 -153 64 -10 216 -12 270 -3 90 15 113 20
131 30 11 5 19 7 19 5 0 -18 243 96 275 130 5 5 26 22 45 36 47 34 132 121
179 183 46 59 121 196 121 219 0 9 5 16 10 16 6 0 9 3 8 8 -1 4 6 33 16 64 58
193 55 415 -10 608 -61 181 -169 335 -324 459 -30 25 -58 48 -63 51 -4 4 -3
29 2 56 10 47 14 71 27 161 7 42 5 45 -47 96 -88 88 -179 130 -329 154 -32 5
-198 11 -202 8z m-383 -522 c5 -27 10 -55 11 -63 2 -8 6 -30 9 -47 4 -23 2
-33 -7 -34 -7 -1 -41 -2 -75 -3 -59 -1 -76 5 -53 19 16 10 27 68 19 98 -7 24
-3 30 29 52 20 14 42 25 48 25 7 0 15 -21 19 -47z m975 -50 c131 -112 236
-260 286 -401 12 -35 24 -66 28 -69 3 -4 6 -21 6 -38 0 -17 3 -35 7 -38 10
-11 16 -82 16 -192 -1 -87 -7 -180 -13 -180 -2 0 -7 -18 -15 -60 -8 -41 -62
-172 -87 -215 -63 -107 -71 -113 -100 -82 -9 9 -23 22 -30 27 -7 6 -47 37 -88
70 -41 33 -91 69 -111 79 l-36 19 4 76 c3 65 7 135 12 204 1 11 9 17 24 17 29
0 116 27 133 41 8 6 14 8 14 4 0 -4 7 -2 15 5 12 10 11 18 -10 59 -23 47 -101
153 -117 159 -15 6 -8 22 9 22 28 0 80 42 97 77 34 71 10 153 -56 193 -35 21
-33 23 25 20 20 -1 38 3 38 9 2 16 4 22 17 54 7 16 12 32 12 36 0 5 -32 8 -70
7 -39 -1 -75 1 -81 5 -7 4 -7 24 0 64 6 32 11 60 11 62 0 11 22 -2 60 -34z
m-1142 -103 c21 0 33 -5 34 -15 0 -8 1 -21 2 -27 1 -7 -5 -12 -13 -10 -15 3
-54 -20 -92 -55 -19 -18 -28 -21 -32 -11 -3 7 -12 29 -21 49 -15 35 -14 36 16
73 l30 37 22 -20 c13 -12 36 -21 54 -21z m149 -106 c-3 -3 -12 -4 -19 -1 -8 3
-5 6 6 6 11 1 17 -2 13 -5z m-212 -137 c21 -14 42 -14 89 -2 21 6 27 5 22 -3
-11 -19 29 -97 62 -120 16 -12 40 -22 51 -22 28 0 27 -4 -16 -50 -41 -43 -113
-156 -113 -176 0 -14 85 -48 147 -59 24 -4 45 -11 49 -16 3 -5 7 -60 10 -122
3 -61 6 -122 9 -134 5 -29 -8 -32 -90 -18 -125 22 -251 99 -292 179 -9 17 -19
33 -22 36 -8 6 -40 88 -47 121 -15 73 -19 111 -18 174 2 116 1 112 33 113 55
1 102 52 93 100 -4 16 8 15 33 -1z"/>
</g>
</svg>
